HIERARCHY
ROOT Hips
{
	OFFSET 0.000000 0.000000 0.000000
	CHANNELS 6 Xposition Yposition Zposition Zrotation Yrotation Xrotation 
	JOINT LHipJoint
	{
		OFFSET 0.000000 0.000000 0.000000
		CHANNELS 3 Zrotation Yrotation Xrotation
		JOINT LeftUpLeg
		{
			OFFSET 1.363060 -1.794630 0.839290
			CHANNELS 3 Zrotation Yrotation Xrotation
			JOINT LeftLeg
			{
				OFFSET 2.448110 -6.726130 0.000000
				CHANNELS 3 Zrotation Yrotation Xrotation
				JOINT LeftFoot
				{
					OFFSET 2.562200 -7.039590 0.000000
					CHANNELS 3 Zrotation Yrotation Xrotation
					JOINT LeftToeBase
					{
						OFFSET 0.157640 -0.433110 2.322550
						CHANNELS 3 Zrotation Yrotation Xrotation
						End Site
						{
							OFFSET 0.000000 0.000000 0.000000
						}
					}
				}
			}
		}
	}
	JOINT RHipJoint
	{
		OFFSET 0.000000 0.000000 0.000000
		CHANNELS 3 Zrotation Yrotation Xrotation
		JOINT RightUpLeg
		{
			OFFSET -1.305520 -1.794630 0.839290
			CHANNELS 3 Zrotation Yrotation Xrotation
			JOINT RightLeg
			{
				OFFSET -2.542530 -6.985550 0.000000
				CHANNELS 3 Zrotation Yrotation Xrotation
				JOINT RightFoot
				{
					OFFSET -2.568260 -7.056230 0.000000
					CHANNELS 3 Zrotation Yrotation Xrotation
					JOINT RightToeBase
					{
						OFFSET -0.164730 -0.452590 2.363150
						CHANNELS 3 Zrotation Yrotation Xrotation
						End Site
						{
							OFFSET 0.000000 0.000000 0.000000
						}
					}
				}
			}
		}
	}
	JOINT LowerBack
	{
		OFFSET 0.000000 0.000000 0.000000
		CHANNELS 3 Zrotation Yrotation Xrotation
		JOINT Spine
		{
			OFFSET 0.028270 2.035590 -0.193380
			CHANNELS 3 Zrotation Yrotation Xrotation
			JOINT Spine1
			{
				OFFSET 0.056720 2.048850 -0.042750
				CHANNELS 3 Zrotation Yrotation Xrotation
				JOINT Neck
				{
					OFFSET 0.000000 0.000000 0.000000
					CHANNELS 3 Zrotation Yrotation Xrotation
					JOINT Neck1
					{
						OFFSET -0.054170 1.746240 0.172020
						CHANNELS 3 Zrotation Yrotation Xrotation
						JOINT Head
						{
							OFFSET 0.104070 1.761360 -0.123970
							CHANNELS 3 Zrotation Yrotation Xrotation
							End Site
							{
								OFFSET 0.000000 0.000000 0.000000
							}
						}
					}
				}
				JOINT LeftShoulder
				{
					OFFSET 0.000000 0.000000 0.000000
					CHANNELS 3 Zrotation Yrotation Xrotation
					JOINT LeftArm
					{
						OFFSET 3.362410 1.200890 -0.311210
						CHANNELS 3 Zrotation Yrotation Xrotation
						JOINT LeftForeArm
						{
							OFFSET 4.983000 -0.000000 -0.000000
							CHANNELS 3 Zrotation Yrotation Xrotation
							JOINT LeftHand
							{
								OFFSET 3.483560 -0.000000 -0.000000
								CHANNELS 3 Zrotation Yrotation Xrotation
								JOINT LeftFingerBase
								{
									OFFSET 0.000000 0.000000 0.000000
									CHANNELS 3 Zrotation Yrotation Xrotation
									JOINT LeftHandIndex1
									{
										OFFSET 0.715260 -0.000000 -0.000000
										CHANNELS 3 Zrotation Yrotation Xrotation
										End Site
										{
											OFFSET 0.000000 0.000000 0.000000
										}
									}
								}
								JOINT LThumb
								{
									OFFSET 0.000000 0.000000 0.000000
									CHANNELS 3 Zrotation Yrotation Xrotation
									End Site
									{
										OFFSET 0.000000 0.000000 0.000000
									}
								}
							}
						}
					}
				}
				JOINT RightShoulder
				{
					OFFSET 0.000000 0.000000 0.000000
					CHANNELS 3 Zrotation Yrotation Xrotation
					JOINT RightArm
					{
						OFFSET -3.136600 1.374050 -0.404650
						CHANNELS 3 Zrotation Yrotation Xrotation
						JOINT RightForeArm
						{
							OFFSET -5.241900 -0.000000 -0.000000
							CHANNELS 3 Zrotation Yrotation Xrotation
							JOINT RightHand
							{
								OFFSET -3.444170 -0.000000 -0.000000
								CHANNELS 3 Zrotation Yrotation Xrotation
								JOINT RightFingerBase
								{
									OFFSET 0.000000 0.000000 0.000000
									CHANNELS 3 Zrotation Yrotation Xrotation
									JOINT RightHandIndex1
									{
										OFFSET -0.622530 -0.000000 -0.000000
										CHANNELS 3 Zrotation Yrotation Xrotation
										End Site
										{
											OFFSET 0.000000 0.000000 0.000000
										}
									}
								}
								JOINT RThumb
								{
									OFFSET 0.000000 0.000000 0.000000
									CHANNELS 3 Zrotation Yrotation Xrotation
									End Site
									{
										OFFSET 0.000000 0.000000 0.000000
									}
								}
							}
						}
					}
				}
			}
		}
	}
}
MOTION
Frames: 5
Frame Time: 0.008333
-0.328577 17.810777 -29.294316 -3.487680 35.104351 0.425657 -5.958655 -1.962896 0.301248 -6.203612 -10.222459 -10.199238 0.721301 9.795089 26.289872 -0.359706 3.896355 2.051363 0.248100 -3.205200 -8.850700 4.702562 1.616249 0.795788 15.507447 -11.850869 -7.142829 -1.191862 -9.184599 23.764159 8.795907 -33.621078 -20.413719 -0.006300 -0.510900 1.403800 2.529395 6.187283 1.257667 2.568789 8.071260 -1.207782 1.234376 4.181286 -0.881862 7.997659 22.343120 2.848123 -2.663488 29.060869 1.948869 -2.847700 14.330700 4.836900 3.864273 -2.105763 0.469369 -93.836841 0.779605 10.603052 14.973175 -24.021810 -2.982619 0.176736 0.336237 -4.406470 11.566278 1.188792 0.173100 -7.125000 0.000000 0.000000 -12.024500 30.727400 4.276400 -2.762505 0.809888 0.288698 83.170594 0.182847 24.236207 -16.010023 25.689019 -3.605595 0.119022 -0.521250 -12.207956 -18.572710 -1.652724 0.365800 7.125000 0.000000 0.000000 6.363000 -31.091000 2.174900 
-0.332172 17.812774 -29.298709 -3.504295 35.280282 0.492286 -5.965643 -1.973485 0.282267 -6.165792 -10.343587 -10.285364 0.719971 9.787322 26.282381 -0.343387 3.839553 2.121384 0.250600 -3.220800 -8.894100 4.705703 1.619745 0.796473 15.555150 -11.859571 -7.261275 -1.192982 -9.189776 23.782944 8.813625 -33.687781 -20.518681 -0.007000 -0.540100 1.484200 2.519498 6.221135 1.246888 2.585192 8.112638 -1.222261 1.262548 4.209255 -0.905173 8.079360 22.450346 3.156143 -2.907721 29.133839 1.271843 -2.981800 14.354000 4.607400 3.855781 -2.139541 0.475414 -93.956484 0.567398 10.598702 15.120453 -24.226089 -3.036174 0.173519 0.322143 -4.464144 11.317631 0.630020 0.062200 -7.125000 0.000000 0.000000 -12.145900 30.179700 4.484200 -2.773033 0.780298 0.288745 83.234549 -0.037011 24.337008 -15.723740 25.322227 -3.493082 0.108770 -0.519808 -11.771346 -18.696391 -1.286015 0.245300 7.125000 0.000000 0.000000 6.242900 -30.711700 2.190500 
-0.330674 17.814671 -29.302602 -3.407633 35.420218 0.578002 -5.974268 -1.982642 0.271547 -6.253493 -10.382467 -10.322258 0.714528 9.781239 26.272830 -0.309892 3.721357 2.140206 0.242800 -3.171100 -8.755500 4.705958 1.618377 0.797969 15.462859 -11.944629 -7.349656 -1.200355 -9.199704 23.815995 8.817358 -33.693567 -20.530473 -0.006800 -0.532200 1.462400 2.508646 6.259230 1.253013 2.548171 8.158555 -1.219361 1.218690 4.237753 -0.905832 8.081474 22.549383 3.592376 -3.207268 29.231413 0.744469 -3.127500 14.397400 4.409200 3.841555 -2.170846 0.485488 -93.962760 0.582844 10.966759 15.460843 -24.697764 -3.168903 0.174056 0.337757 -4.964748 11.626660 1.028135 0.141500 -7.125000 0.000000 0.000000 -11.957200 30.568300 4.298100 -2.785379 0.754016 0.285192 83.414087 -0.241925 24.087913 -15.469675 24.995551 -3.388191 0.109948 -0.513877 -11.524881 -18.061359 -1.512478 0.312900 7.125000 0.000000 0.000000 6.759300 -30.948000 2.335300 
-0.328178 17.814970 -29.306995 -3.389797 35.531392 0.622199 -5.981951 -1.985862 0.259624 -6.280964 -10.478169 -10.357131 0.711824 9.777111 26.263759 -0.312455 3.730484 2.191378 0.247200 -3.199300 -8.834000 4.706970 1.620755 0.799272 15.431144 -12.078089 -7.460567 -1.208230 -9.207177 23.842978 8.815057 -33.668912 -20.465820 -0.006900 -0.537100 1.475900 2.547960 6.279671 1.255271 2.531848 8.186924 -1.235261 1.167828 4.250154 -0.913398 7.962030 22.582185 3.400938 -3.098543 29.292219 0.933571 -3.050000 14.426100 4.477200 3.841123 -2.158849 0.485794 -94.015443 0.541663 11.372409 15.754652 -25.099274 -3.283746 0.171378 0.348096 -5.989175 11.748568 1.153716 0.167200 -7.125000 0.000000 0.000000 -11.880400 30.689000 4.234300 -2.786816 0.767767 0.284910 83.549715 -0.329496 23.981938 -15.072575 24.486410 -3.240345 0.100457 -0.511878 -10.703444 -18.227787 -1.449323 0.296400 7.125000 0.000000 0.000000 6.624000 -30.888300 2.297600 
-0.327479 17.815669 -29.310789 -3.365265 35.672229 0.662124 -5.988370 -1.990729 0.248979 -6.305904 -10.556529 -10.387915 0.707969 9.771138 26.252730 -0.295295 3.670812 2.235746 0.246400 -3.194300 -8.820200 4.707685 1.621762 0.800388 15.408220 -12.178793 -7.547094 -1.214224 -9.214377 23.868388 8.817933 -33.674012 -20.470634 -0.007100 -0.543000 1.492000 2.551974 6.312844 1.268260 2.520338 8.230673 -1.245667 1.144264 4.274044 -0.931921 7.910011 22.636929 3.487627 -3.157041 29.350506 0.763949 -3.073500 14.451500 4.411300 3.835300 -2.167740 0.489543 -94.051253 0.503769 11.674281 16.017642 -25.456262 -3.388096 0.170520 0.352596 -6.503315 11.853452 1.156593 0.168800 -7.125000 0.000000 0.000000 -11.800400 30.691100 4.204000 -2.793207 0.762586 0.283590 83.684971 -0.481652 23.818198 -14.742348 24.058071 -3.117754 0.093300 -0.508835 -10.070465 -18.196368 -1.396453 0.280000 7.125000 0.000000 0.000000 6.645800 -30.837300 2.313400 
